<svg width="2560" height="1080" viewBox="0 0 2560 1080" fill="none" xmlns="http://www.w3.org/2000/svg">
<rect width="2560" height="1080" fill="url(#paint0_radial_424_2)" fill-opacity="0.7"/>
<rect width="2560" height="1080" fill="url(#paint1_radial_424_2)" fill-opacity="0.2"/>
<rect width="2560" height="1080" fill="url(#paint2_radial_424_2)" fill-opacity="0.2"/>
<path d="M921.645 538.24C921.645 531.307 922.925 524.533 925.485 517.92C928.152 511.2 931.992 505.12 937.005 499.68C942.018 494.24 948.098 489.92 955.245 486.72C962.498 483.413 970.658 481.76 979.725 481.76C990.605 481.76 1000.1 484.053 1008.21 488.64C1016.31 493.12 1022.34 499.093 1026.29 506.56L1002.45 523.52C1001.06 519.787 999.032 516.907 996.365 514.88C993.805 512.853 990.978 511.467 987.885 510.72C984.898 509.867 981.965 509.44 979.085 509.44C974.605 509.44 970.712 510.347 967.405 512.16C964.205 513.867 961.538 516.16 959.405 519.04C957.378 521.92 955.832 525.12 954.765 528.64C953.805 532.16 953.325 535.68 953.325 539.2C953.325 543.147 953.912 546.933 955.085 550.56C956.258 554.187 957.965 557.44 960.205 560.32C962.445 563.093 965.165 565.28 968.365 566.88C971.672 568.48 975.352 569.28 979.405 569.28C982.285 569.28 985.218 568.853 988.205 568C991.192 567.04 993.912 565.547 996.365 563.52C998.818 561.493 1000.69 558.773 1001.97 555.36L1027.41 570.56C1025.17 576.107 1021.43 580.853 1016.21 584.8C1010.98 588.747 1005.06 591.787 998.445 593.92C991.832 595.947 985.272 596.96 978.765 596.96C970.338 596.96 962.605 595.307 955.565 592C948.632 588.587 942.605 584.107 937.485 578.56C932.472 572.907 928.578 566.613 925.805 559.68C923.032 552.64 921.645 545.493 921.645 538.24ZM1088.11 596.96C1079.04 596.96 1071.26 595.467 1064.75 592.48C1058.24 589.493 1052.91 585.387 1048.75 580.16C1044.7 574.933 1041.71 568.96 1039.79 562.24C1037.87 555.413 1036.91 548.267 1036.91 540.8V482.4H1068.11V540.8C1068.11 544.533 1068.48 548.107 1069.23 551.52C1069.98 554.933 1071.15 557.973 1072.75 560.64C1074.35 563.307 1076.38 565.44 1078.83 567.04C1081.39 568.533 1084.48 569.28 1088.11 569.28C1091.84 569.28 1094.99 568.533 1097.55 567.04C1100.11 565.44 1102.14 563.307 1103.63 560.64C1105.23 557.867 1106.4 554.773 1107.15 551.36C1107.9 547.947 1108.27 544.427 1108.27 540.8V482.4H1139.47V540.8C1139.47 548.693 1138.4 556.053 1136.27 562.88C1134.24 569.707 1131.15 575.68 1126.99 580.8C1122.83 585.92 1117.5 589.92 1110.99 592.8C1104.59 595.573 1096.96 596.96 1088.11 596.96ZM1254.06 566.88C1254.06 573.707 1252.19 579.253 1248.46 583.52C1244.83 587.787 1239.92 590.933 1233.74 592.96C1227.55 594.987 1220.72 596 1213.26 596H1157.42V482.4H1223.34C1228.67 482.4 1233.26 483.84 1237.1 486.72C1241.04 489.493 1244.03 493.12 1246.06 497.6C1248.19 502.08 1249.26 506.72 1249.26 511.52C1249.26 516.747 1247.87 521.813 1245.1 526.72C1242.43 531.627 1238.38 535.307 1232.94 537.76C1239.44 539.68 1244.56 543.04 1248.3 547.84C1252.14 552.64 1254.06 558.987 1254.06 566.88ZM1222.38 560.48C1222.38 558.56 1222 556.907 1221.26 555.52C1220.62 554.027 1219.71 552.853 1218.54 552C1217.36 551.147 1215.98 550.72 1214.38 550.72H1188.62V569.76H1213.26C1214.96 569.76 1216.51 569.387 1217.9 568.64C1219.28 567.893 1220.35 566.827 1221.1 565.44C1221.95 564.053 1222.38 562.4 1222.38 560.48ZM1188.62 508.96V526.4H1209.9C1211.28 526.4 1212.62 526.187 1213.9 525.76C1215.18 525.227 1216.24 524.32 1217.1 523.04C1217.95 521.76 1218.38 519.947 1218.38 517.6C1218.38 515.467 1218 513.813 1217.26 512.64C1216.62 511.36 1215.71 510.453 1214.54 509.92C1213.47 509.28 1212.24 508.96 1210.86 508.96H1188.62ZM1348.85 568.8V596H1267.89V482.4H1347.41V509.6H1299.09V525.6H1340.36V550.88H1299.09V568.8H1348.85ZM1420.69 482.4H1455.57L1491.73 596H1460.05L1453.17 573.76H1422.93L1416.21 596H1384.37L1420.69 482.4ZM1448.21 552.96L1438.13 512.96L1427.57 552.96H1448.21ZM1501.17 596V482.4H1550.13C1555.67 482.4 1560.79 483.52 1565.49 485.76C1570.18 488 1574.23 491.04 1577.65 494.88C1581.06 498.613 1583.67 502.827 1585.49 507.52C1587.41 512.213 1588.37 516.96 1588.37 521.76C1588.37 528.48 1586.77 534.827 1583.57 540.8C1580.47 546.773 1576.1 551.68 1570.45 555.52C1564.9 559.253 1558.39 561.12 1550.93 561.12H1532.37V596H1501.17ZM1532.37 533.92H1548.85C1550.13 533.92 1551.35 533.547 1552.53 532.8C1553.7 532.053 1554.66 530.773 1555.41 528.96C1556.26 527.147 1556.69 524.747 1556.69 521.76C1556.69 518.56 1556.21 516.107 1555.25 514.4C1554.39 512.587 1553.27 511.36 1551.89 510.72C1550.61 509.973 1549.33 509.6 1548.05 509.6H1532.37V533.92ZM1600.85 596V482.4H1632.05V596H1600.85Z" fill="white"/>
<path d="M986.119 651V616.92H1008.63V620.76H990.439V632.136H1005.75V635.736H990.439V651H986.119ZM1008.74 643.752C1008.74 642.152 1009.19 640.776 1010.09 639.624C1011.02 638.44 1012.28 637.528 1013.88 636.888C1015.48 636.248 1017.34 635.928 1019.45 635.928C1020.57 635.928 1021.75 636.024 1023 636.216C1024.25 636.376 1025.35 636.632 1026.31 636.984V635.16C1026.31 633.24 1025.74 631.736 1024.58 630.648C1023.43 629.528 1021.8 628.968 1019.69 628.968C1018.31 628.968 1016.98 629.224 1015.7 629.736C1014.46 630.216 1013.13 630.92 1011.72 631.848L1010.18 628.872C1011.82 627.752 1013.45 626.92 1015.08 626.376C1016.71 625.8 1018.41 625.512 1020.17 625.512C1023.37 625.512 1025.9 626.408 1027.75 628.2C1029.61 629.96 1030.54 632.424 1030.54 635.592V646.2C1030.54 646.712 1030.63 647.096 1030.82 647.352C1031.05 647.576 1031.4 647.704 1031.88 647.736V651C1031.46 651.064 1031.1 651.112 1030.78 651.144C1030.49 651.176 1030.25 651.192 1030.06 651.192C1029.06 651.192 1028.31 650.92 1027.8 650.376C1027.32 649.832 1027.05 649.256 1026.98 648.648L1026.89 647.064C1025.8 648.472 1024.38 649.56 1022.62 650.328C1020.86 651.096 1019.11 651.48 1017.38 651.48C1015.72 651.48 1014.23 651.144 1012.92 650.472C1011.61 649.768 1010.58 648.84 1009.85 647.688C1009.11 646.504 1008.74 645.192 1008.74 643.752ZM1025.06 645.528C1025.45 645.08 1025.75 644.632 1025.98 644.184C1026.2 643.704 1026.31 643.304 1026.31 642.984V639.864C1025.32 639.48 1024.28 639.192 1023.19 639C1022.1 638.776 1021.03 638.664 1019.98 638.664C1017.83 638.664 1016.09 639.096 1014.74 639.96C1013.43 640.792 1012.78 641.944 1012.78 643.416C1012.78 644.216 1012.98 645 1013.4 645.768C1013.85 646.504 1014.49 647.112 1015.32 647.592C1016.18 648.072 1017.24 648.312 1018.49 648.312C1019.8 648.312 1021.05 648.056 1022.23 647.544C1023.42 647 1024.36 646.328 1025.06 645.528ZM1045.88 651.48C1043.8 651.48 1041.85 651.144 1040.03 650.472C1038.2 649.768 1036.63 648.728 1035.32 647.352L1036.95 644.376C1038.39 645.72 1039.83 646.68 1041.27 647.256C1042.71 647.832 1044.19 648.12 1045.69 648.12C1047.42 648.12 1048.83 647.8 1049.91 647.16C1051 646.488 1051.55 645.512 1051.55 644.232C1051.55 643.304 1051.26 642.616 1050.68 642.168C1050.14 641.72 1049.35 641.352 1048.33 641.064C1047.31 640.744 1046.09 640.392 1044.68 640.008C1042.95 639.496 1041.5 638.952 1040.31 638.376C1039.13 637.8 1038.23 637.08 1037.63 636.216C1037.02 635.352 1036.71 634.264 1036.71 632.952C1036.71 631.352 1037.13 630.008 1037.96 628.92C1038.79 627.8 1039.93 626.952 1041.37 626.376C1042.84 625.8 1044.51 625.512 1046.36 625.512C1048.22 625.512 1049.9 625.8 1051.4 626.376C1052.91 626.952 1054.2 627.8 1055.29 628.92L1053.37 631.848C1052.38 630.824 1051.29 630.072 1050.11 629.592C1048.92 629.08 1047.59 628.824 1046.12 628.824C1045.26 628.824 1044.41 628.936 1043.58 629.16C1042.75 629.352 1042.06 629.72 1041.51 630.264C1040.97 630.776 1040.7 631.512 1040.7 632.472C1040.7 633.272 1040.91 633.912 1041.32 634.392C1041.77 634.84 1042.41 635.224 1043.24 635.544C1044.11 635.864 1045.15 636.216 1046.36 636.6C1048.25 637.144 1049.88 637.688 1051.26 638.232C1052.67 638.776 1053.75 639.48 1054.52 640.344C1055.29 641.208 1055.67 642.408 1055.67 643.944C1055.67 646.312 1054.78 648.168 1052.99 649.512C1051.19 650.824 1048.83 651.48 1045.88 651.48ZM1073.69 649.752C1073.34 649.912 1072.86 650.12 1072.25 650.376C1071.64 650.632 1070.94 650.856 1070.14 651.048C1069.34 651.24 1068.49 651.336 1067.59 651.336C1066.57 651.336 1065.62 651.16 1064.76 650.808C1063.9 650.424 1063.21 649.848 1062.7 649.08C1062.18 648.28 1061.93 647.288 1061.93 646.104V629.256H1058.52V625.944H1061.93V617.592H1066.15V625.944H1071.77V629.256H1066.15V644.808C1066.22 645.704 1066.52 646.376 1067.06 646.824C1067.61 647.24 1068.25 647.448 1068.98 647.448C1069.82 647.448 1070.58 647.304 1071.29 647.016C1071.99 646.728 1072.46 646.52 1072.68 646.392L1073.69 649.752ZM1099.28 616.92H1102.93L1116.85 651H1112.24L1108.21 641.016H1093.91L1089.92 651H1085.32L1099.28 616.92ZM1107.25 637.656L1101.11 621.912L1094.77 637.656H1107.25ZM1121.4 651V616.92H1135.61C1137.11 616.92 1138.49 617.24 1139.74 617.88C1140.98 618.488 1142.07 619.32 1143 620.376C1143.93 621.4 1144.65 622.568 1145.16 623.88C1145.67 625.16 1145.93 626.472 1145.93 627.816C1145.93 629.672 1145.51 631.448 1144.68 633.144C1143.85 634.808 1142.68 636.168 1141.18 637.224C1139.67 638.248 1137.91 638.76 1135.9 638.76H1125.72V651H1121.4ZM1125.72 634.92H1135.66C1136.84 634.92 1137.86 634.6 1138.73 633.96C1139.62 633.32 1140.31 632.456 1140.79 631.368C1141.3 630.28 1141.56 629.096 1141.56 627.816C1141.56 626.472 1141.27 625.272 1140.7 624.216C1140.12 623.128 1139.37 622.28 1138.44 621.672C1137.51 621.064 1136.49 620.76 1135.37 620.76H1125.72V634.92ZM1151.31 651V616.92H1155.63V651H1151.31ZM1173.28 643.752C1173.28 642.152 1173.72 640.776 1174.62 639.624C1175.55 638.44 1176.81 637.528 1178.41 636.888C1180.01 636.248 1181.87 635.928 1183.98 635.928C1185.1 635.928 1186.28 636.024 1187.53 636.216C1188.78 636.376 1189.88 636.632 1190.84 636.984V635.16C1190.84 633.24 1190.27 631.736 1189.12 630.648C1187.96 629.528 1186.33 628.968 1184.22 628.968C1182.84 628.968 1181.52 629.224 1180.24 629.736C1178.99 630.216 1177.66 630.92 1176.25 631.848L1174.72 628.872C1176.35 627.752 1177.98 626.92 1179.61 626.376C1181.24 625.8 1182.94 625.512 1184.7 625.512C1187.9 625.512 1190.43 626.408 1192.28 628.2C1194.14 629.96 1195.07 632.424 1195.07 635.592V646.2C1195.07 646.712 1195.16 647.096 1195.36 647.352C1195.58 647.576 1195.93 647.704 1196.41 647.736V651C1196 651.064 1195.63 651.112 1195.31 651.144C1195.02 651.176 1194.78 651.192 1194.59 651.192C1193.6 651.192 1192.84 650.92 1192.33 650.376C1191.85 649.832 1191.58 649.256 1191.52 648.648L1191.42 647.064C1190.33 648.472 1188.91 649.56 1187.15 650.328C1185.39 651.096 1183.64 651.48 1181.92 651.48C1180.25 651.48 1178.76 651.144 1177.45 650.472C1176.14 649.768 1175.12 648.84 1174.38 647.688C1173.64 646.504 1173.28 645.192 1173.28 643.752ZM1189.6 645.528C1189.98 645.08 1190.28 644.632 1190.51 644.184C1190.73 643.704 1190.84 643.304 1190.84 642.984V639.864C1189.85 639.48 1188.81 639.192 1187.72 639C1186.64 638.776 1185.56 638.664 1184.51 638.664C1182.36 638.664 1180.62 639.096 1179.28 639.96C1177.96 640.792 1177.31 641.944 1177.31 643.416C1177.31 644.216 1177.52 645 1177.93 645.768C1178.38 646.504 1179.02 647.112 1179.85 647.592C1180.72 648.072 1181.77 648.312 1183.02 648.312C1184.33 648.312 1185.58 648.056 1186.76 647.544C1187.95 647 1188.89 646.328 1189.6 645.528ZM1223.57 651H1219.34V636.984C1219.34 634.328 1218.93 632.392 1218.09 631.176C1217.29 629.928 1216.06 629.304 1214.4 629.304C1213.25 629.304 1212.09 629.592 1210.94 630.168C1209.82 630.744 1208.81 631.528 1207.92 632.52C1207.05 633.48 1206.43 634.6 1206.05 635.88V651H1201.82V625.944H1205.66V631.32C1206.33 630.136 1207.2 629.112 1208.25 628.248C1209.31 627.384 1210.51 626.712 1211.85 626.232C1213.2 625.752 1214.61 625.512 1216.08 625.512C1217.52 625.512 1218.72 625.784 1219.68 626.328C1220.67 626.84 1221.44 627.576 1221.98 628.536C1222.56 629.464 1222.96 630.568 1223.18 631.848C1223.44 633.128 1223.57 634.52 1223.57 636.024V651ZM1228.5 638.52C1228.5 636.152 1228.98 633.992 1229.94 632.04C1230.93 630.056 1232.28 628.472 1233.97 627.288C1235.7 626.104 1237.67 625.512 1239.88 625.512C1241.89 625.512 1243.7 626.04 1245.3 627.096C1246.9 628.152 1248.15 629.432 1249.05 630.936V615.96H1253.27V646.2C1253.27 646.712 1253.37 647.096 1253.56 647.352C1253.78 647.576 1254.13 647.704 1254.61 647.736V651C1253.81 651.128 1253.19 651.192 1252.74 651.192C1251.91 651.192 1251.17 650.904 1250.53 650.328C1249.93 649.752 1249.62 649.112 1249.62 648.408V646.296C1248.63 647.896 1247.3 649.16 1245.64 650.088C1243.97 651.016 1242.25 651.48 1240.45 651.48C1238.73 651.48 1237.13 651.144 1235.65 650.472C1234.21 649.768 1232.95 648.808 1231.86 647.592C1230.81 646.376 1229.97 645 1229.37 643.464C1228.79 641.896 1228.5 640.248 1228.5 638.52ZM1249.05 642.216V635.016C1248.66 633.928 1248.04 632.952 1247.17 632.088C1246.31 631.192 1245.33 630.488 1244.25 629.976C1243.19 629.432 1242.13 629.16 1241.08 629.16C1239.83 629.16 1238.69 629.432 1237.67 629.976C1236.68 630.488 1235.81 631.192 1235.08 632.088C1234.37 632.952 1233.83 633.944 1233.45 635.064C1233.06 636.184 1232.87 637.352 1232.87 638.568C1232.87 639.816 1233.08 641 1233.49 642.12C1233.94 643.24 1234.55 644.232 1235.32 645.096C1236.12 645.96 1237.03 646.632 1238.05 647.112C1239.11 647.592 1240.25 647.832 1241.46 647.832C1242.23 647.832 1243.01 647.688 1243.81 647.4C1244.65 647.112 1245.43 646.712 1246.17 646.2C1246.9 645.688 1247.53 645.096 1248.04 644.424C1248.55 643.72 1248.89 642.984 1249.05 642.216ZM1273.13 651V616.92H1287.34C1288.85 616.92 1290.22 617.24 1291.47 617.88C1292.72 618.488 1293.81 619.32 1294.73 620.376C1295.66 621.4 1296.38 622.568 1296.89 623.88C1297.41 625.16 1297.66 626.472 1297.66 627.816C1297.66 629.672 1297.25 631.448 1296.41 633.144C1295.58 634.808 1294.41 636.168 1292.91 637.224C1291.41 638.248 1289.65 638.76 1287.63 638.76H1277.45V651H1273.13ZM1277.45 634.92H1287.39C1288.57 634.92 1289.6 634.6 1290.46 633.96C1291.36 633.32 1292.05 632.456 1292.53 631.368C1293.04 630.28 1293.29 629.096 1293.29 627.816C1293.29 626.472 1293.01 625.272 1292.43 624.216C1291.85 623.128 1291.1 622.28 1290.17 621.672C1289.25 621.064 1288.22 620.76 1287.1 620.76H1277.45V634.92ZM1303.52 657.816C1303.94 657.848 1304.35 657.88 1304.77 657.912C1305.18 657.976 1305.5 658.008 1305.73 658.008C1306.24 658.008 1306.69 657.832 1307.07 657.48C1307.46 657.128 1307.87 656.44 1308.32 655.416C1308.8 654.424 1309.41 652.952 1310.14 651L1299.54 625.944H1304L1312.45 646.728L1320.08 625.944H1324.26L1312.06 657.576C1311.78 658.312 1311.34 659 1310.77 659.64C1310.22 660.312 1309.52 660.84 1308.66 661.224C1307.79 661.608 1306.75 661.8 1305.54 661.8C1305.25 661.8 1304.94 661.784 1304.62 661.752C1304.34 661.72 1303.97 661.656 1303.52 661.56V657.816ZM1341.49 649.752C1341.13 649.912 1340.65 650.12 1340.05 650.376C1339.44 650.632 1338.73 650.856 1337.93 651.048C1337.13 651.24 1336.29 651.336 1335.39 651.336C1334.37 651.336 1333.42 651.16 1332.56 650.808C1331.69 650.424 1331.01 649.848 1330.49 649.08C1329.98 648.28 1329.73 647.288 1329.73 646.104V629.256H1326.32V625.944H1329.73V617.592H1333.95V625.944H1339.57V629.256H1333.95V644.808C1334.01 645.704 1334.32 646.376 1334.86 646.824C1335.41 647.24 1336.05 647.448 1336.78 647.448C1337.61 647.448 1338.38 647.304 1339.09 647.016C1339.79 646.728 1340.25 646.52 1340.48 646.392L1341.49 649.752ZM1367.14 651H1362.92V636.984C1362.92 634.424 1362.46 632.504 1361.53 631.224C1360.63 629.944 1359.34 629.304 1357.64 629.304C1356.55 629.304 1355.45 629.592 1354.33 630.168C1353.24 630.744 1352.28 631.528 1351.45 632.52C1350.62 633.48 1350.01 634.6 1349.62 635.88V651H1345.4V615.96H1349.62V631.32C1350.62 629.528 1351.96 628.12 1353.66 627.096C1355.38 626.04 1357.24 625.512 1359.22 625.512C1360.73 625.512 1361.98 625.784 1362.97 626.328C1363.99 626.84 1364.81 627.576 1365.42 628.536C1366.02 629.496 1366.46 630.616 1366.71 631.896C1367 633.144 1367.14 634.52 1367.14 636.024V651ZM1384.66 651.48C1382.77 651.48 1381.06 651.144 1379.52 650.472C1377.98 649.768 1376.66 648.824 1375.54 647.64C1374.42 646.424 1373.55 645.032 1372.94 643.464C1372.34 641.896 1372.03 640.248 1372.03 638.52C1372.03 636.76 1372.34 635.096 1372.94 633.528C1373.55 631.96 1374.42 630.584 1375.54 629.4C1376.66 628.184 1377.98 627.24 1379.52 626.568C1381.09 625.864 1382.8 625.512 1384.66 625.512C1386.54 625.512 1388.26 625.864 1389.79 626.568C1391.33 627.24 1392.66 628.184 1393.78 629.4C1394.93 630.584 1395.81 631.96 1396.42 633.528C1397.02 635.096 1397.33 636.76 1397.33 638.52C1397.33 640.248 1397.02 641.896 1396.42 643.464C1395.81 645.032 1394.94 646.424 1393.82 647.64C1392.7 648.824 1391.36 649.768 1389.79 650.472C1388.26 651.144 1386.54 651.48 1384.66 651.48ZM1376.35 638.568C1376.35 640.296 1376.72 641.864 1377.46 643.272C1378.22 644.68 1379.23 645.8 1380.48 646.632C1381.73 647.432 1383.12 647.832 1384.66 647.832C1386.19 647.832 1387.58 647.416 1388.83 646.584C1390.11 645.752 1391.12 644.632 1391.86 643.224C1392.62 641.784 1393.01 640.2 1393.01 638.472C1393.01 636.744 1392.62 635.176 1391.86 633.768C1391.12 632.36 1390.11 631.24 1388.83 630.408C1387.58 629.576 1386.19 629.16 1384.66 629.16C1383.12 629.16 1381.73 629.592 1380.48 630.456C1379.23 631.288 1378.22 632.408 1377.46 633.816C1376.72 635.224 1376.35 636.808 1376.35 638.568ZM1424.19 651H1419.97V636.984C1419.97 634.328 1419.55 632.392 1418.72 631.176C1417.92 629.928 1416.69 629.304 1415.02 629.304C1413.87 629.304 1412.72 629.592 1411.57 630.168C1410.45 630.744 1409.44 631.528 1408.54 632.52C1407.68 633.48 1407.06 634.6 1406.67 635.88V651H1402.45V625.944H1406.29V631.32C1406.96 630.136 1407.82 629.112 1408.88 628.248C1409.94 627.384 1411.14 626.712 1412.48 626.232C1413.82 625.752 1415.23 625.512 1416.7 625.512C1418.14 625.512 1419.34 625.784 1420.3 626.328C1421.3 626.84 1422.06 627.576 1422.61 628.536C1423.18 629.464 1423.58 630.568 1423.81 631.848C1424.06 633.128 1424.19 634.52 1424.19 636.024V651ZM1455.76 651.48C1453.81 651.48 1452.04 651 1450.44 650.04C1448.84 649.08 1447.57 647.832 1446.64 646.296V651H1442.9V615.96H1447.12V630.936C1448.18 629.304 1449.48 627.992 1451.01 627C1452.55 626.008 1454.34 625.512 1456.39 625.512C1458.12 625.512 1459.67 625.88 1461.04 626.616C1462.42 627.32 1463.59 628.296 1464.55 629.544C1465.54 630.76 1466.29 632.152 1466.8 633.72C1467.35 635.256 1467.62 636.872 1467.62 638.568C1467.62 640.328 1467.32 641.992 1466.71 643.56C1466.13 645.096 1465.3 646.472 1464.21 647.688C1463.12 648.872 1461.86 649.8 1460.42 650.472C1459.01 651.144 1457.46 651.48 1455.76 651.48ZM1454.71 647.832C1455.96 647.832 1457.11 647.576 1458.16 647.064C1459.22 646.552 1460.13 645.864 1460.9 645C1461.67 644.136 1462.26 643.144 1462.68 642.024C1463.09 640.904 1463.3 639.752 1463.3 638.568C1463.3 636.936 1462.95 635.4 1462.24 633.96C1461.57 632.52 1460.61 631.368 1459.36 630.504C1458.15 629.608 1456.72 629.16 1455.09 629.16C1453.91 629.16 1452.8 629.432 1451.78 629.976C1450.76 630.52 1449.84 631.24 1449.04 632.136C1448.28 633 1447.64 633.96 1447.12 635.016V642.264C1447.28 643.064 1447.62 643.8 1448.13 644.472C1448.64 645.144 1449.27 645.736 1450 646.248C1450.74 646.728 1451.51 647.112 1452.31 647.4C1453.14 647.688 1453.94 647.832 1454.71 647.832ZM1470.84 643.752C1470.84 642.152 1471.29 640.776 1472.18 639.624C1473.11 638.44 1474.37 637.528 1475.97 636.888C1477.57 636.248 1479.43 635.928 1481.54 635.928C1482.66 635.928 1483.85 636.024 1485.09 636.216C1486.34 636.376 1487.45 636.632 1488.41 636.984V635.16C1488.41 633.24 1487.83 631.736 1486.68 630.648C1485.53 629.528 1483.89 628.968 1481.78 628.968C1480.41 628.968 1479.08 629.224 1477.8 629.736C1476.55 630.216 1475.22 630.92 1473.81 631.848L1472.28 628.872C1473.91 627.752 1475.54 626.92 1477.17 626.376C1478.81 625.8 1480.5 625.512 1482.26 625.512C1485.46 625.512 1487.99 626.408 1489.85 628.2C1491.7 629.96 1492.63 632.424 1492.63 635.592V646.2C1492.63 646.712 1492.73 647.096 1492.92 647.352C1493.14 647.576 1493.49 647.704 1493.97 647.736V651C1493.56 651.064 1493.19 651.112 1492.87 651.144C1492.58 651.176 1492.34 651.192 1492.15 651.192C1491.16 651.192 1490.41 650.92 1489.89 650.376C1489.41 649.832 1489.14 649.256 1489.08 648.648L1488.98 647.064C1487.89 648.472 1486.47 649.56 1484.71 650.328C1482.95 651.096 1481.21 651.48 1479.48 651.48C1477.81 651.48 1476.33 651.144 1475.01 650.472C1473.7 649.768 1472.68 648.84 1471.94 647.688C1471.21 646.504 1470.84 645.192 1470.84 643.752ZM1487.16 645.528C1487.54 645.08 1487.85 644.632 1488.07 644.184C1488.29 643.704 1488.41 643.304 1488.41 642.984V639.864C1487.41 639.48 1486.37 639.192 1485.29 639C1484.2 638.776 1483.13 638.664 1482.07 638.664C1479.93 638.664 1478.18 639.096 1476.84 639.96C1475.53 640.792 1474.87 641.944 1474.87 643.416C1474.87 644.216 1475.08 645 1475.49 645.768C1475.94 646.504 1476.58 647.112 1477.41 647.592C1478.28 648.072 1479.33 648.312 1480.58 648.312C1481.89 648.312 1483.14 648.056 1484.33 647.544C1485.51 647 1486.45 646.328 1487.16 645.528ZM1507.98 651.48C1505.9 651.48 1503.94 651.144 1502.12 650.472C1500.3 649.768 1498.73 648.728 1497.42 647.352L1499.05 644.376C1500.49 645.72 1501.93 646.68 1503.37 647.256C1504.81 647.832 1506.28 648.12 1507.78 648.12C1509.51 648.12 1510.92 647.8 1512.01 647.16C1513.1 646.488 1513.64 645.512 1513.64 644.232C1513.64 643.304 1513.35 642.616 1512.78 642.168C1512.23 641.72 1511.45 641.352 1510.42 641.064C1509.4 640.744 1508.18 640.392 1506.78 640.008C1505.05 639.496 1503.59 638.952 1502.41 638.376C1501.22 637.8 1500.33 637.08 1499.72 636.216C1499.11 635.352 1498.81 634.264 1498.81 632.952C1498.81 631.352 1499.22 630.008 1500.06 628.92C1500.89 627.8 1502.02 626.952 1503.46 626.376C1504.94 625.8 1506.6 625.512 1508.46 625.512C1510.31 625.512 1511.99 625.8 1513.5 626.376C1515 626.952 1516.3 627.8 1517.38 628.92L1515.46 631.848C1514.47 630.824 1513.38 630.072 1512.2 629.592C1511.02 629.08 1509.69 628.824 1508.22 628.824C1507.35 628.824 1506.5 628.936 1505.67 629.16C1504.84 629.352 1504.15 629.72 1503.61 630.264C1503.06 630.776 1502.79 631.512 1502.79 632.472C1502.79 633.272 1503 633.912 1503.42 634.392C1503.86 634.84 1504.5 635.224 1505.34 635.544C1506.2 635.864 1507.24 636.216 1508.46 636.6C1510.34 637.144 1511.98 637.688 1513.35 638.232C1514.76 638.776 1515.85 639.48 1516.62 640.344C1517.38 641.208 1517.77 642.408 1517.77 643.944C1517.77 646.312 1516.87 648.168 1515.08 649.512C1513.29 650.824 1510.92 651.48 1507.98 651.48ZM1533.91 651.48C1532.02 651.48 1530.29 651.144 1528.73 650.472C1527.19 649.768 1525.85 648.824 1524.69 647.64C1523.57 646.424 1522.69 645.032 1522.05 643.464C1521.45 641.896 1521.14 640.232 1521.14 638.472C1521.14 636.104 1521.69 633.944 1522.77 631.992C1523.86 630.04 1525.37 628.472 1527.29 627.288C1529.24 626.104 1531.46 625.512 1533.96 625.512C1536.49 625.512 1538.68 626.12 1540.53 627.336C1542.42 628.52 1543.88 630.088 1544.9 632.04C1545.96 633.96 1546.49 636.04 1546.49 638.28C1546.49 638.6 1546.47 638.92 1546.44 639.24C1546.44 639.528 1546.42 639.752 1546.39 639.912H1525.61C1525.73 641.544 1526.18 643 1526.95 644.28C1527.75 645.528 1528.77 646.52 1530.02 647.256C1531.27 647.96 1532.61 648.312 1534.05 648.312C1535.59 648.312 1537.03 647.928 1538.37 647.16C1539.75 646.392 1540.69 645.384 1541.21 644.136L1544.85 645.144C1544.31 646.36 1543.49 647.448 1542.41 648.408C1541.35 649.368 1540.09 650.12 1538.61 650.664C1537.17 651.208 1535.61 651.48 1533.91 651.48ZM1525.46 636.984H1542.55C1542.42 635.352 1541.96 633.912 1541.16 632.664C1540.36 631.416 1539.33 630.44 1538.09 629.736C1536.84 629.032 1535.46 628.68 1533.96 628.68C1532.49 628.68 1531.13 629.032 1529.88 629.736C1528.63 630.44 1527.61 631.416 1526.81 632.664C1526.04 633.912 1525.59 635.352 1525.46 636.984ZM1549.55 638.52C1549.55 636.152 1550.03 633.992 1550.99 632.04C1551.98 630.056 1553.33 628.472 1555.02 627.288C1556.75 626.104 1558.72 625.512 1560.93 625.512C1562.94 625.512 1564.75 626.04 1566.35 627.096C1567.95 628.152 1569.2 629.432 1570.09 630.936V615.96H1574.32V646.2C1574.32 646.712 1574.41 647.096 1574.61 647.352C1574.83 647.576 1575.18 647.704 1575.66 647.736V651C1574.86 651.128 1574.24 651.192 1573.79 651.192C1572.96 651.192 1572.22 650.904 1571.58 650.328C1570.97 649.752 1570.67 649.112 1570.67 648.408V646.296C1569.68 647.896 1568.35 649.16 1566.69 650.088C1565.02 651.016 1563.29 651.48 1561.5 651.48C1559.77 651.48 1558.17 651.144 1556.7 650.472C1555.26 649.768 1554 648.808 1552.91 647.592C1551.85 646.376 1551.02 645 1550.41 643.464C1549.84 641.896 1549.55 640.248 1549.55 638.52ZM1570.09 642.216V635.016C1569.71 633.928 1569.09 632.952 1568.22 632.088C1567.36 631.192 1566.38 630.488 1565.29 629.976C1564.24 629.432 1563.18 629.16 1562.13 629.16C1560.88 629.16 1559.74 629.432 1558.72 629.976C1557.73 630.488 1556.86 631.192 1556.13 632.088C1555.42 632.952 1554.88 633.944 1554.49 635.064C1554.11 636.184 1553.92 637.352 1553.92 638.568C1553.92 639.816 1554.13 641 1554.54 642.12C1554.99 643.24 1555.6 644.232 1556.37 645.096C1557.17 645.96 1558.08 646.632 1559.1 647.112C1560.16 647.592 1561.29 647.832 1562.51 647.832C1563.28 647.832 1564.06 647.688 1564.86 647.4C1565.69 647.112 1566.48 646.712 1567.21 646.2C1567.95 645.688 1568.57 645.096 1569.09 644.424C1569.6 643.72 1569.93 642.984 1570.09 642.216Z" fill="white" fill-opacity="0.5"/>
<path d="M2069.63 1021.9C2069.63 1019.12 2070.14 1016.41 2071.16 1013.77C2072.19 1011.08 2073.68 1008.65 2075.64 1006.47C2077.61 1004.3 2080 1002.57 2082.81 1001.29C2085.63 999.965 2088.83 999.304 2092.41 999.304C2096.68 999.304 2100.37 1000.22 2103.48 1002.06C2106.64 1003.89 2108.99 1006.28 2110.52 1009.22L2102.46 1014.86C2101.78 1013.23 2100.86 1011.98 2099.71 1011.08C2098.6 1010.18 2097.36 1009.57 2096 1009.22C2094.67 1008.84 2093.39 1008.65 2092.16 1008.65C2090.15 1008.65 2088.4 1009.05 2086.91 1009.86C2085.41 1010.63 2084.18 1011.68 2083.2 1013C2082.21 1014.32 2081.49 1015.79 2081.02 1017.42C2080.55 1019.04 2080.32 1020.66 2080.32 1022.28C2080.32 1024.07 2080.59 1025.8 2081.15 1027.46C2081.7 1029.13 2082.49 1030.6 2083.52 1031.88C2084.58 1033.16 2085.86 1034.18 2087.36 1034.95C2088.85 1035.68 2090.49 1036.04 2092.28 1036.04C2093.56 1036.04 2094.87 1035.83 2096.19 1035.4C2097.51 1034.97 2098.73 1034.31 2099.84 1033.42C2100.99 1032.48 2101.86 1031.26 2102.46 1029.77L2111.04 1034.82C2110.14 1037.04 2108.67 1038.94 2106.62 1040.52C2104.57 1042.1 2102.25 1043.31 2099.64 1044.17C2097.08 1044.98 2094.55 1045.38 2092.03 1045.38C2088.74 1045.38 2085.71 1044.72 2082.94 1043.4C2080.21 1042.03 2077.84 1040.24 2075.84 1038.02C2073.87 1035.76 2072.34 1033.25 2071.23 1030.47C2070.16 1027.66 2069.63 1024.8 2069.63 1021.9ZM2142.23 1045.38C2138.61 1045.38 2135.51 1044.79 2132.95 1043.59C2130.39 1042.35 2128.3 1040.69 2126.68 1038.6C2125.1 1036.47 2123.93 1034.06 2123.16 1031.37C2122.44 1028.64 2122.07 1025.78 2122.07 1022.79V999.56H2132.57V1022.79C2132.57 1024.5 2132.74 1026.16 2133.08 1027.78C2133.42 1029.36 2133.98 1030.77 2134.75 1032.01C2135.51 1033.25 2136.5 1034.23 2137.69 1034.95C2138.93 1035.68 2140.44 1036.04 2142.23 1036.04C2144.07 1036.04 2145.61 1035.68 2146.84 1034.95C2148.08 1034.18 2149.06 1033.18 2149.79 1031.94C2150.51 1030.66 2151.05 1029.23 2151.39 1027.66C2151.73 1026.08 2151.9 1024.46 2151.9 1022.79V999.56H2162.39V1022.79C2162.39 1025.95 2161.99 1028.89 2161.18 1031.62C2160.41 1034.35 2159.22 1036.77 2157.59 1038.86C2155.97 1040.9 2153.88 1042.5 2151.32 1043.66C2148.81 1044.81 2145.78 1045.38 2142.23 1045.38ZM2214.49 1033.35C2214.49 1035.95 2213.79 1038.13 2212.38 1039.88C2211.02 1041.59 2209.16 1042.87 2206.81 1043.72C2204.47 1044.57 2201.89 1045 2199.07 1045H2176.93V999.56H2202.21C2204.34 999.56 2206.17 1000.14 2207.71 1001.29C2209.29 1002.4 2210.48 1003.85 2211.29 1005.64C2212.15 1007.43 2212.57 1009.29 2212.57 1011.21C2212.57 1013.34 2212.02 1015.39 2210.91 1017.35C2209.8 1019.27 2208.18 1020.72 2206.05 1021.7C2208.65 1022.47 2210.7 1023.84 2212.19 1025.8C2213.73 1027.76 2214.49 1030.28 2214.49 1033.35ZM2203.81 1031.24C2203.81 1030.26 2203.61 1029.41 2203.23 1028.68C2202.85 1027.91 2202.33 1027.31 2201.69 1026.89C2201.1 1026.42 2200.37 1026.18 2199.52 1026.18H2187.42V1036.1H2199.07C2199.97 1036.1 2200.76 1035.89 2201.44 1035.46C2202.16 1035.04 2202.74 1034.46 2203.17 1033.74C2203.59 1033.01 2203.81 1032.18 2203.81 1031.24ZM2187.42 1008.52V1017.93H2197.73C2198.49 1017.93 2199.2 1017.76 2199.84 1017.42C2200.52 1017.07 2201.08 1016.56 2201.5 1015.88C2201.93 1015.15 2202.14 1014.26 2202.14 1013.19C2202.14 1012.17 2201.95 1011.31 2201.57 1010.63C2201.23 1009.95 2200.76 1009.44 2200.16 1009.1C2199.56 1008.71 2198.88 1008.52 2198.11 1008.52H2187.42ZM2259.01 1035.78V1045H2227.08V999.56H2258.44V1008.78H2237.57V1017.61H2255.49V1026.12H2237.57V1035.78H2259.01ZM2299.05 1012.87C2298.93 1012.66 2298.48 1012.34 2297.71 1011.91C2296.94 1011.44 2295.98 1010.95 2294.83 1010.44C2293.68 1009.93 2292.42 1009.48 2291.05 1009.1C2289.69 1008.71 2288.32 1008.52 2286.96 1008.52C2285.17 1008.52 2283.78 1008.84 2282.8 1009.48C2281.82 1010.08 2281.33 1011.02 2281.33 1012.3C2281.33 1013.32 2281.69 1014.13 2282.41 1014.73C2283.18 1015.33 2284.27 1015.86 2285.68 1016.33C2287.09 1016.75 2288.81 1017.27 2290.86 1017.86C2293.76 1018.63 2296.28 1019.57 2298.41 1020.68C2300.55 1021.75 2302.17 1023.13 2303.28 1024.84C2304.43 1026.55 2305.01 1028.81 2305.01 1031.62C2305.01 1034.18 2304.54 1036.36 2303.6 1038.15C2302.66 1039.9 2301.38 1041.33 2299.76 1042.44C2298.18 1043.51 2296.37 1044.3 2294.32 1044.81C2292.27 1045.28 2290.16 1045.51 2287.98 1045.51C2285.76 1045.51 2283.48 1045.3 2281.13 1044.87C2278.83 1044.4 2276.61 1043.76 2274.48 1042.95C2272.34 1042.1 2270.38 1041.07 2268.59 1039.88L2273.2 1030.73C2273.37 1030.94 2273.92 1031.35 2274.86 1031.94C2275.8 1032.5 2276.95 1033.1 2278.32 1033.74C2279.73 1034.33 2281.28 1034.87 2282.99 1035.34C2284.7 1035.81 2286.42 1036.04 2288.17 1036.04C2290.05 1036.04 2291.44 1035.74 2292.33 1035.14C2293.27 1034.55 2293.74 1033.71 2293.74 1032.65C2293.74 1031.5 2293.25 1030.6 2292.27 1029.96C2291.33 1029.32 2290.03 1028.74 2288.37 1028.23C2286.74 1027.72 2284.87 1027.14 2282.73 1026.5C2279.96 1025.65 2277.66 1024.69 2275.82 1023.62C2274.03 1022.56 2272.69 1021.26 2271.79 1019.72C2270.94 1018.18 2270.51 1016.26 2270.51 1013.96C2270.51 1010.76 2271.26 1008.07 2272.75 1005.9C2274.29 1003.68 2276.33 1002.01 2278.89 1000.9C2281.45 999.752 2284.25 999.176 2287.28 999.176C2289.41 999.176 2291.46 999.432 2293.42 999.944C2295.43 1000.46 2297.28 1001.1 2298.99 1001.86C2300.74 1002.63 2302.3 1003.4 2303.66 1004.17L2299.05 1012.87ZM2352.19 1008.78H2338.36V1045H2327.87V1008.78H2313.98V999.56H2352.19V1008.78ZM2383.23 1045.38C2379.61 1045.38 2376.51 1044.79 2373.95 1043.59C2371.39 1042.35 2369.3 1040.69 2367.68 1038.6C2366.1 1036.47 2364.93 1034.06 2364.16 1031.37C2363.44 1028.64 2363.07 1025.78 2363.07 1022.79V999.56H2373.57V1022.79C2373.57 1024.5 2373.74 1026.16 2374.08 1027.78C2374.42 1029.36 2374.98 1030.77 2375.75 1032.01C2376.51 1033.25 2377.5 1034.23 2378.69 1034.95C2379.93 1035.68 2381.44 1036.04 2383.23 1036.04C2385.07 1036.04 2386.61 1035.68 2387.84 1034.95C2389.08 1034.18 2390.06 1033.18 2390.79 1031.94C2391.51 1030.66 2392.05 1029.23 2392.39 1027.66C2392.73 1026.08 2392.9 1024.46 2392.9 1022.79V999.56H2403.39V1022.79C2403.39 1025.95 2402.99 1028.89 2402.18 1031.62C2401.41 1034.35 2400.22 1036.77 2398.59 1038.86C2396.97 1040.9 2394.88 1042.5 2392.32 1043.66C2389.81 1044.81 2386.78 1045.38 2383.23 1045.38ZM2417.93 1045V999.56H2434.89C2439.88 999.56 2444.04 1000.58 2447.37 1002.63C2450.74 1004.64 2453.28 1007.37 2454.98 1010.82C2456.69 1014.24 2457.54 1018.03 2457.54 1022.22C2457.54 1026.82 2456.6 1030.83 2454.73 1034.25C2452.85 1037.66 2450.2 1040.31 2446.79 1042.18C2443.42 1044.06 2439.45 1045 2434.89 1045H2417.93ZM2446.85 1022.22C2446.85 1019.57 2446.39 1017.25 2445.45 1015.24C2444.51 1013.19 2443.14 1011.61 2441.35 1010.5C2439.56 1009.35 2437.4 1008.78 2434.89 1008.78H2428.42V1035.78H2434.89C2437.45 1035.78 2439.6 1035.21 2441.35 1034.06C2443.14 1032.86 2444.51 1031.24 2445.45 1029.19C2446.39 1027.1 2446.85 1024.78 2446.85 1022.22ZM2470.14 1045V999.56H2480.64V1045H2470.14ZM2515.63 1045.38C2512.22 1045.38 2509.12 1044.74 2506.35 1043.46C2503.62 1042.14 2501.25 1040.39 2499.25 1038.22C2497.28 1036 2495.77 1033.52 2494.7 1030.79C2493.64 1028.02 2493.1 1025.16 2493.1 1022.22C2493.1 1019.19 2493.66 1016.31 2494.77 1013.58C2495.92 1010.85 2497.5 1008.41 2499.5 1006.28C2501.55 1004.1 2503.96 1002.4 2506.74 1001.16C2509.51 999.923 2512.54 999.304 2515.82 999.304C2519.19 999.304 2522.24 999.965 2524.98 1001.29C2527.75 1002.57 2530.12 1004.32 2532.08 1006.54C2534.08 1008.75 2535.62 1011.25 2536.69 1014.02C2537.75 1016.75 2538.29 1019.55 2538.29 1022.41C2538.29 1025.44 2537.73 1028.32 2536.62 1031.05C2535.51 1033.78 2533.94 1036.23 2531.89 1038.41C2529.84 1040.54 2527.43 1042.25 2524.66 1043.53C2521.92 1044.77 2518.92 1045.38 2515.63 1045.38ZM2503.79 1022.34C2503.79 1024.09 2504.05 1025.8 2504.56 1027.46C2505.07 1029.09 2505.82 1030.54 2506.8 1031.82C2507.82 1033.1 2509.08 1034.12 2510.58 1034.89C2512.07 1035.66 2513.78 1036.04 2515.7 1036.04C2517.7 1036.04 2519.45 1035.66 2520.94 1034.89C2522.44 1034.08 2523.67 1033.01 2524.66 1031.69C2525.64 1030.37 2526.36 1028.89 2526.83 1027.27C2527.34 1025.61 2527.6 1023.92 2527.6 1022.22C2527.6 1020.47 2527.34 1018.78 2526.83 1017.16C2526.32 1015.54 2525.55 1014.09 2524.53 1012.81C2523.5 1011.49 2522.24 1010.46 2520.75 1009.74C2519.26 1009.01 2517.57 1008.65 2515.7 1008.65C2513.69 1008.65 2511.94 1009.03 2510.45 1009.8C2509 1010.57 2507.76 1011.61 2506.74 1012.94C2505.75 1014.22 2505.01 1015.69 2504.5 1017.35C2504.03 1018.97 2503.79 1020.64 2503.79 1022.34Z" fill="white"/>
<defs>
<radialGradient id="paint0_radial_424_2" cx="0" cy="0" r="1" gradientUnits="userSpaceOnUse" gradientTransform="translate(2316.79 81.8181) rotate(155.273) scale(1913.75 2111.73)">
<stop stop-color="#7BB82E"/>
<stop offset="1" stop-opacity="0"/>
</radialGradient>
<radialGradient id="paint1_radial_424_2" cx="0" cy="0" r="1" gradientUnits="userSpaceOnUse" gradientTransform="translate(235.569 976.255) rotate(-18.0807) scale(1277.01 1362.77)">
<stop stop-color="#82CB25"/>
<stop offset="1" stop-opacity="0"/>
</radialGradient>
<radialGradient id="paint2_radial_424_2" cx="0" cy="0" r="1" gradientUnits="userSpaceOnUse" gradientTransform="translate(150.148 81.1636) rotate(32.5166) scale(1129.99 1826.11)">
<stop stop-color="#91FF04"/>
<stop offset="1" stop-opacity="0"/>
</radialGradient>
</defs>
</svg>
