<svg width="1280" height="832" viewBox="0 0 1280 832" fill="none" xmlns="http://www.w3.org/2000/svg">
<rect width="1280" height="832" fill="#09090B"/>
<path d="M542.871 388.727H530.854C530.769 387.733 530.542 386.831 530.173 386.021C529.817 385.212 529.32 384.516 528.681 383.933C528.056 383.337 527.296 382.882 526.401 382.57C525.506 382.243 524.491 382.08 523.354 382.08C521.366 382.08 519.683 382.562 518.305 383.528C516.941 384.494 515.904 385.879 515.194 387.683C514.498 389.487 514.15 391.653 514.15 394.182C514.15 396.852 514.505 399.089 515.215 400.893C515.94 402.683 516.984 404.033 518.347 404.942C519.711 405.837 521.352 406.284 523.269 406.284C524.363 406.284 525.343 406.149 526.21 405.879C527.076 405.595 527.829 405.19 528.468 404.665C529.107 404.139 529.626 403.507 530.023 402.768C530.435 402.016 530.712 401.17 530.854 400.233L542.871 400.318C542.729 402.165 542.211 404.047 541.316 405.964C540.421 407.868 539.15 409.629 537.502 411.249C535.869 412.854 533.844 414.146 531.43 415.126C529.015 416.107 526.21 416.597 523.013 416.597C519.008 416.597 515.414 415.737 512.232 414.018C509.065 412.3 506.558 409.771 504.711 406.433C502.879 403.095 501.962 399.011 501.962 394.182C501.962 389.324 502.9 385.233 504.775 381.909C506.65 378.571 509.178 376.05 512.36 374.345C515.542 372.626 519.093 371.767 523.013 371.767C525.769 371.767 528.305 372.143 530.62 372.896C532.935 373.649 534.967 374.75 536.714 376.199C538.461 377.634 539.867 379.402 540.933 381.504C541.998 383.607 542.644 386.014 542.871 388.727ZM574.07 372.364H585.917V400.318C585.917 403.642 585.121 406.518 583.53 408.947C581.953 411.362 579.752 413.23 576.925 414.551C574.098 415.858 570.817 416.511 567.081 416.511C563.317 416.511 560.022 415.858 557.195 414.551C554.368 413.23 552.167 411.362 550.59 408.947C549.027 406.518 548.246 403.642 548.246 400.318V372.364H560.093V399.295C560.093 400.645 560.391 401.852 560.988 402.918C561.584 403.969 562.408 404.793 563.459 405.389C564.525 405.986 565.732 406.284 567.081 406.284C568.445 406.284 569.652 405.986 570.703 405.389C571.755 404.793 572.578 403.969 573.175 402.918C573.772 401.852 574.07 400.645 574.07 399.295V372.364ZM591.547 416V372.364H610.467C613.791 372.364 616.582 372.811 618.841 373.706C621.114 374.601 622.825 375.865 623.976 377.499C625.141 379.132 625.723 381.057 625.723 383.273C625.723 384.878 625.368 386.341 624.658 387.662C623.962 388.983 622.982 390.091 621.717 390.986C620.453 391.866 618.976 392.477 617.286 392.818V393.244C619.161 393.315 620.865 393.791 622.399 394.672C623.933 395.538 625.155 396.739 626.064 398.273C626.973 399.793 627.428 401.582 627.428 403.642C627.428 406.028 626.803 408.152 625.553 410.013C624.317 411.874 622.555 413.337 620.268 414.402C617.982 415.467 615.254 416 612.087 416H591.547ZM603.393 406.54H608.933C610.922 406.54 612.413 406.17 613.408 405.432C614.402 404.679 614.899 403.571 614.899 402.108C614.899 401.085 614.665 400.219 614.196 399.509C613.727 398.798 613.06 398.259 612.193 397.889C611.341 397.52 610.311 397.335 609.104 397.335H603.393V406.54ZM603.393 390.006H608.251C609.288 390.006 610.205 389.842 611 389.516C611.795 389.189 612.413 388.72 612.854 388.109C613.308 387.484 613.536 386.724 613.536 385.83C613.536 384.48 613.053 383.45 612.087 382.74C611.121 382.016 609.899 381.653 608.422 381.653H603.393V390.006ZM631.625 416V372.364H663.074V381.909H643.472V389.409H661.455V398.955H643.472V406.455H662.989V416H631.625ZM692.238 416H679.453L693.857 372.364H710.05L724.453 416H711.669L702.124 384.381H701.783L692.238 416ZM689.851 398.784H713.885V407.648H689.851V398.784ZM728.656 416V372.364H747.491C750.73 372.364 753.564 373.003 755.993 374.281C758.422 375.56 760.311 377.357 761.661 379.672C763.01 381.987 763.685 384.693 763.685 387.79C763.685 390.915 762.989 393.621 761.597 395.908C760.219 398.195 758.28 399.956 755.78 401.192C753.294 402.428 750.389 403.045 747.065 403.045H735.815V393.841H744.679C746.071 393.841 747.257 393.599 748.237 393.116C749.232 392.619 749.991 391.916 750.517 391.007C751.057 390.098 751.327 389.026 751.327 387.79C751.327 386.54 751.057 385.474 750.517 384.594C749.991 383.699 749.232 383.017 748.237 382.548C747.257 382.065 746.071 381.824 744.679 381.824H740.503V416H728.656ZM779.878 372.364V416H768.031V372.364H779.878Z" fill="white"/>
<path d="M500.717 439.818H507.544L514.754 457.409H515.061L522.271 439.818H529.098V466H523.728V448.959H523.511L516.735 465.872H513.079L506.304 448.895H506.086V466H500.717V439.818ZM542.428 466.384C540.442 466.384 538.725 465.962 537.276 465.118C535.836 464.266 534.724 463.081 533.94 461.564C533.156 460.038 532.763 458.27 532.763 456.259C532.763 454.23 533.156 452.457 533.94 450.94C534.724 449.415 535.836 448.23 537.276 447.386C538.725 446.534 540.442 446.108 542.428 446.108C544.414 446.108 546.127 446.534 547.567 447.386C549.016 448.23 550.133 449.415 550.917 450.94C551.701 452.457 552.093 454.23 552.093 456.259C552.093 458.27 551.701 460.038 550.917 461.564C550.133 463.081 549.016 464.266 547.567 465.118C546.127 465.962 544.414 466.384 542.428 466.384ZM542.454 462.165C543.357 462.165 544.112 461.909 544.717 461.398C545.322 460.878 545.778 460.17 546.085 459.276C546.4 458.381 546.558 457.362 546.558 456.22C546.558 455.078 546.4 454.06 546.085 453.165C545.778 452.27 545.322 451.562 544.717 451.043C544.112 450.523 543.357 450.263 542.454 450.263C541.542 450.263 540.775 450.523 540.153 451.043C539.539 451.562 539.075 452.27 538.759 453.165C538.452 454.06 538.299 455.078 538.299 456.22C538.299 457.362 538.452 458.381 538.759 459.276C539.075 460.17 539.539 460.878 540.153 461.398C540.775 461.909 541.542 462.165 542.454 462.165ZM562.87 466.32C561.379 466.32 560.028 465.936 558.817 465.169C557.616 464.393 556.661 463.256 555.954 461.756C555.255 460.247 554.906 458.398 554.906 456.207C554.906 453.957 555.268 452.087 555.992 450.595C556.717 449.095 557.68 447.974 558.881 447.233C560.092 446.483 561.417 446.108 562.857 446.108C563.957 446.108 564.873 446.295 565.606 446.67C566.347 447.037 566.944 447.497 567.396 448.051C567.856 448.597 568.205 449.134 568.444 449.662H568.61V439.818H574.043V466H568.674V462.855H568.444C568.188 463.401 567.826 463.942 567.357 464.479C566.897 465.007 566.296 465.446 565.555 465.795C564.822 466.145 563.927 466.32 562.87 466.32ZM564.596 461.986C565.474 461.986 566.215 461.747 566.82 461.27C567.434 460.784 567.903 460.107 568.227 459.237C568.559 458.368 568.725 457.349 568.725 456.182C568.725 455.014 568.563 454 568.239 453.139C567.915 452.278 567.447 451.614 566.833 451.145C566.219 450.676 565.474 450.442 564.596 450.442C563.701 450.442 562.947 450.685 562.333 451.17C561.719 451.656 561.255 452.33 560.94 453.19C560.624 454.051 560.467 455.048 560.467 456.182C560.467 457.324 560.624 458.334 560.94 459.212C561.263 460.081 561.728 460.763 562.333 461.257C562.947 461.743 563.701 461.986 564.596 461.986ZM587.47 466.384C585.45 466.384 583.711 465.974 582.254 465.156C580.805 464.33 579.689 463.162 578.904 461.653C578.12 460.136 577.728 458.342 577.728 456.271C577.728 454.251 578.12 452.479 578.904 450.953C579.689 449.428 580.792 448.239 582.216 447.386C583.647 446.534 585.326 446.108 587.252 446.108C588.548 446.108 589.754 446.317 590.87 446.734C591.995 447.143 592.975 447.761 593.811 448.588C594.654 449.415 595.311 450.455 595.779 451.707C596.248 452.952 596.483 454.409 596.483 456.08V457.575H579.902V454.2H591.356C591.356 453.416 591.186 452.722 590.845 452.116C590.504 451.511 590.031 451.038 589.426 450.697C588.829 450.348 588.135 450.173 587.342 450.173C586.515 450.173 585.782 450.365 585.143 450.749C584.512 451.124 584.018 451.631 583.66 452.27C583.302 452.901 583.119 453.604 583.11 454.379V457.588C583.11 458.56 583.289 459.399 583.647 460.107C584.014 460.814 584.529 461.359 585.194 461.743C585.859 462.126 586.647 462.318 587.559 462.318C588.164 462.318 588.718 462.233 589.221 462.062C589.724 461.892 590.154 461.636 590.512 461.295C590.87 460.955 591.143 460.537 591.331 460.043L596.368 460.375C596.112 461.585 595.588 462.642 594.795 463.545C594.011 464.44 592.997 465.139 591.752 465.642C590.517 466.136 589.089 466.384 587.47 466.384ZM600.037 466V446.364H605.316V449.79H605.521C605.879 448.571 606.48 447.651 607.324 447.028C608.167 446.398 609.139 446.082 610.238 446.082C610.511 446.082 610.805 446.099 611.12 446.134C611.436 446.168 611.713 446.214 611.951 446.274V451.107C611.696 451.03 611.342 450.962 610.89 450.902C610.439 450.842 610.025 450.812 609.65 450.812C608.849 450.812 608.133 450.987 607.502 451.337C606.88 451.678 606.386 452.155 606.02 452.768C605.662 453.382 605.483 454.089 605.483 454.891V466H600.037ZM620.213 454.648V466H614.767V446.364H619.957V449.828H620.188C620.622 448.686 621.351 447.783 622.374 447.118C623.396 446.445 624.636 446.108 626.094 446.108C627.457 446.108 628.646 446.406 629.661 447.003C630.675 447.599 631.463 448.452 632.026 449.56C632.588 450.659 632.869 451.972 632.869 453.497V466H627.423V454.469C627.432 453.267 627.125 452.33 626.503 451.656C625.881 450.974 625.024 450.634 623.933 450.634C623.2 450.634 622.553 450.791 621.99 451.107C621.436 451.422 621.001 451.882 620.686 452.487C620.379 453.084 620.222 453.804 620.213 454.648ZM651.093 466.371C649.84 466.371 648.724 466.153 647.744 465.719C646.763 465.276 645.988 464.624 645.417 463.763C644.854 462.893 644.573 461.811 644.573 460.516C644.573 459.425 644.773 458.509 645.174 457.767C645.575 457.026 646.12 456.429 646.81 455.977C647.501 455.526 648.285 455.185 649.163 454.955C650.049 454.724 650.978 454.562 651.95 454.469C653.092 454.349 654.012 454.239 654.711 454.136C655.41 454.026 655.917 453.864 656.232 453.651C656.548 453.437 656.705 453.122 656.705 452.705V452.628C656.705 451.818 656.45 451.192 655.938 450.749C655.435 450.305 654.719 450.084 653.79 450.084C652.81 450.084 652.031 450.301 651.451 450.736C650.871 451.162 650.488 451.699 650.3 452.347L645.263 451.938C645.519 450.744 646.022 449.713 646.772 448.844C647.522 447.966 648.489 447.293 649.674 446.824C650.867 446.347 652.248 446.108 653.816 446.108C654.907 446.108 655.951 446.236 656.948 446.491C657.954 446.747 658.844 447.143 659.62 447.68C660.404 448.217 661.022 448.908 661.474 449.751C661.925 450.587 662.151 451.588 662.151 452.756V466H656.987V463.277H656.833C656.518 463.891 656.096 464.432 655.567 464.901C655.039 465.361 654.404 465.723 653.663 465.987C652.921 466.243 652.065 466.371 651.093 466.371ZM652.653 462.612C653.454 462.612 654.161 462.455 654.775 462.139C655.388 461.815 655.87 461.381 656.219 460.835C656.569 460.29 656.744 459.672 656.744 458.982V456.898C656.573 457.009 656.339 457.111 656.04 457.205C655.751 457.29 655.423 457.371 655.056 457.447C654.69 457.516 654.323 457.58 653.957 457.639C653.59 457.69 653.258 457.737 652.96 457.78C652.32 457.874 651.762 458.023 651.285 458.227C650.808 458.432 650.437 458.709 650.173 459.058C649.908 459.399 649.776 459.825 649.776 460.337C649.776 461.078 650.045 461.645 650.582 462.037C651.127 462.42 651.817 462.612 652.653 462.612ZM671.822 454.648V466H666.376V446.364H671.567V449.828H671.797C672.232 448.686 672.96 447.783 673.983 447.118C675.006 446.445 676.246 446.108 677.703 446.108C679.067 446.108 680.256 446.406 681.27 447.003C682.284 447.599 683.072 448.452 683.635 449.56C684.197 450.659 684.479 451.972 684.479 453.497V466H679.033V454.469C679.041 453.267 678.734 452.33 678.112 451.656C677.49 450.974 676.634 450.634 675.543 450.634C674.81 450.634 674.162 450.791 673.599 451.107C673.045 451.422 672.611 451.882 672.295 452.487C671.989 453.084 671.831 453.804 671.822 454.648ZM696.007 466.32C694.515 466.32 693.164 465.936 691.954 465.169C690.752 464.393 689.798 463.256 689.091 461.756C688.392 460.247 688.042 458.398 688.042 456.207C688.042 453.957 688.404 452.087 689.129 450.595C689.853 449.095 690.816 447.974 692.018 447.233C693.228 446.483 694.554 446.108 695.994 446.108C697.093 446.108 698.01 446.295 698.743 446.67C699.484 447.037 700.081 447.497 700.532 448.051C700.993 448.597 701.342 449.134 701.581 449.662H701.747V439.818H707.18V466H701.811V462.855H701.581C701.325 463.401 700.963 463.942 700.494 464.479C700.034 465.007 699.433 465.446 698.691 465.795C697.958 466.145 697.064 466.32 696.007 466.32ZM697.733 461.986C698.61 461.986 699.352 461.747 699.957 461.27C700.571 460.784 701.039 460.107 701.363 459.237C701.696 458.368 701.862 457.349 701.862 456.182C701.862 455.014 701.7 454 701.376 453.139C701.052 452.278 700.583 451.614 699.97 451.145C699.356 450.676 698.61 450.442 697.733 450.442C696.838 450.442 696.083 450.685 695.47 451.17C694.856 451.656 694.392 452.33 694.076 453.19C693.761 454.051 693.603 455.048 693.603 456.182C693.603 457.324 693.761 458.334 694.076 459.212C694.4 460.081 694.865 460.763 695.47 461.257C696.083 461.743 696.838 461.986 697.733 461.986ZM720.092 466V439.818H737.427V444.382H725.627V450.621H736.277V455.185H725.627V466H720.092ZM746.494 439.818V466H741.048V439.818H746.494ZM756.456 466.371C755.203 466.371 754.087 466.153 753.107 465.719C752.127 465.276 751.351 464.624 750.78 463.763C750.218 462.893 749.936 461.811 749.936 460.516C749.936 459.425 750.137 458.509 750.537 457.767C750.938 457.026 751.483 456.429 752.174 455.977C752.864 455.526 753.648 455.185 754.526 454.955C755.412 454.724 756.341 454.562 757.313 454.469C758.455 454.349 759.375 454.239 760.074 454.136C760.773 454.026 761.28 453.864 761.596 453.651C761.911 453.437 762.069 453.122 762.069 452.705V452.628C762.069 451.818 761.813 451.192 761.301 450.749C760.799 450.305 760.083 450.084 759.154 450.084C758.174 450.084 757.394 450.301 756.814 450.736C756.235 451.162 755.851 451.699 755.664 452.347L750.627 451.938C750.882 450.744 751.385 449.713 752.135 448.844C752.885 447.966 753.853 447.293 755.037 446.824C756.23 446.347 757.611 446.108 759.179 446.108C760.27 446.108 761.314 446.236 762.311 446.491C763.317 446.747 764.208 447.143 764.983 447.68C765.767 448.217 766.385 448.908 766.837 449.751C767.289 450.587 767.515 451.588 767.515 452.756V466H762.35V463.277H762.196C761.881 463.891 761.459 464.432 760.931 464.901C760.402 465.361 759.767 465.723 759.026 465.987C758.284 466.243 757.428 466.371 756.456 466.371ZM758.016 462.612C758.817 462.612 759.525 462.455 760.138 462.139C760.752 461.815 761.233 461.381 761.583 460.835C761.932 460.29 762.107 459.672 762.107 458.982V456.898C761.936 457.009 761.702 457.111 761.404 457.205C761.114 457.29 760.786 457.371 760.419 457.447C760.053 457.516 759.686 457.58 759.32 457.639C758.953 457.69 758.621 457.737 758.323 457.78C757.684 457.874 757.125 458.023 756.648 458.227C756.171 458.432 755.8 458.709 755.536 459.058C755.272 459.399 755.14 459.825 755.14 460.337C755.14 461.078 755.408 461.645 755.945 462.037C756.49 462.42 757.181 462.612 758.016 462.612ZM782.184 446.364V450.455H770.359V446.364H782.184ZM773.044 441.659H778.49V459.966C778.49 460.469 778.566 460.861 778.72 461.142C778.873 461.415 779.086 461.607 779.359 461.717C779.64 461.828 779.964 461.884 780.331 461.884C780.586 461.884 780.842 461.862 781.098 461.82C781.353 461.768 781.549 461.73 781.686 461.705L782.542 465.757C782.27 465.842 781.886 465.94 781.392 466.051C780.897 466.17 780.297 466.243 779.589 466.268C778.277 466.32 777.126 466.145 776.137 465.744C775.157 465.344 774.395 464.722 773.849 463.878C773.304 463.034 773.035 461.969 773.044 460.682V441.659Z" fill="url(#paint0_linear_699_2)"/>
<path d="M605.42 744.29H603.295C603.235 743.941 603.123 743.633 602.96 743.364C602.797 743.091 602.595 742.86 602.352 742.67C602.11 742.481 601.833 742.339 601.523 742.244C601.216 742.146 600.884 742.097 600.528 742.097C599.896 742.097 599.335 742.256 598.847 742.574C598.358 742.888 597.975 743.35 597.699 743.96C597.422 744.566 597.284 745.307 597.284 746.182C597.284 747.072 597.422 747.822 597.699 748.432C597.979 749.038 598.362 749.496 598.847 749.807C599.335 750.114 599.894 750.267 600.523 750.267C600.871 750.267 601.197 750.222 601.5 750.131C601.807 750.036 602.081 749.898 602.324 749.716C602.57 749.534 602.777 749.311 602.943 749.045C603.114 748.78 603.231 748.477 603.295 748.136L605.42 748.148C605.341 748.701 605.169 749.22 604.903 749.705C604.642 750.189 604.299 750.617 603.875 750.989C603.451 751.356 602.955 751.644 602.386 751.852C601.818 752.057 601.188 752.159 600.494 752.159C599.472 752.159 598.559 751.922 597.756 751.449C596.953 750.975 596.32 750.292 595.858 749.398C595.396 748.504 595.165 747.432 595.165 746.182C595.165 744.928 595.398 743.856 595.864 742.966C596.33 742.072 596.964 741.388 597.767 740.915C598.57 740.441 599.479 740.205 600.494 740.205C601.142 740.205 601.744 740.295 602.301 740.477C602.858 740.659 603.354 740.926 603.79 741.278C604.225 741.627 604.583 742.055 604.864 742.562C605.148 743.066 605.333 743.642 605.42 744.29ZM612.822 748.33V743.273H614.879V752H612.885V750.449H612.794C612.597 750.937 612.273 751.337 611.822 751.648C611.375 751.958 610.824 752.114 610.169 752.114C609.597 752.114 609.091 751.987 608.652 751.733C608.216 751.475 607.875 751.102 607.629 750.614C607.383 750.121 607.26 749.527 607.26 748.83V743.273H609.317V748.511C609.317 749.064 609.468 749.504 609.771 749.83C610.074 750.155 610.472 750.318 610.964 750.318C611.268 750.318 611.561 750.244 611.845 750.097C612.129 749.949 612.362 749.729 612.544 749.438C612.73 749.142 612.822 748.773 612.822 748.33ZM617.085 752V740.364H619.142V744.716H619.227C619.333 744.504 619.483 744.278 619.676 744.04C619.869 743.797 620.131 743.591 620.46 743.42C620.79 743.246 621.21 743.159 621.722 743.159C622.396 743.159 623.004 743.331 623.545 743.676C624.091 744.017 624.523 744.523 624.841 745.193C625.163 745.86 625.324 746.678 625.324 747.648C625.324 748.606 625.167 749.42 624.852 750.091C624.538 750.761 624.11 751.273 623.568 751.625C623.027 751.977 622.413 752.153 621.727 752.153C621.227 752.153 620.813 752.07 620.483 751.903C620.153 751.737 619.888 751.536 619.688 751.301C619.491 751.062 619.337 750.837 619.227 750.625H619.108V752H617.085ZM619.102 747.636C619.102 748.201 619.182 748.695 619.341 749.119C619.504 749.544 619.737 749.875 620.04 750.114C620.347 750.348 620.718 750.466 621.153 750.466C621.608 750.466 621.989 750.345 622.295 750.102C622.602 749.856 622.833 749.521 622.989 749.097C623.148 748.669 623.227 748.182 623.227 747.636C623.227 747.095 623.15 746.614 622.994 746.193C622.839 745.773 622.608 745.443 622.301 745.205C621.994 744.966 621.612 744.847 621.153 744.847C620.714 744.847 620.341 744.962 620.034 745.193C619.727 745.424 619.494 745.748 619.335 746.165C619.18 746.581 619.102 747.072 619.102 747.636ZM630.936 752.17C630.061 752.17 629.305 751.989 628.669 751.625C628.036 751.258 627.55 750.739 627.209 750.068C626.868 749.394 626.697 748.6 626.697 747.688C626.697 746.79 626.868 746.002 627.209 745.324C627.554 744.642 628.035 744.112 628.652 743.733C629.269 743.35 629.995 743.159 630.828 743.159C631.366 743.159 631.874 743.246 632.351 743.42C632.832 743.591 633.256 743.856 633.624 744.216C633.995 744.576 634.286 745.034 634.499 745.591C634.711 746.144 634.817 746.803 634.817 747.568V748.199H627.663V746.812H632.845C632.841 746.419 632.756 746.068 632.589 745.761C632.423 745.451 632.19 745.206 631.891 745.028C631.595 744.85 631.25 744.761 630.857 744.761C630.436 744.761 630.067 744.864 629.749 745.068C629.43 745.269 629.182 745.534 629.004 745.864C628.83 746.189 628.741 746.547 628.737 746.938V748.148C628.737 748.655 628.83 749.091 629.016 749.455C629.201 749.814 629.461 750.091 629.794 750.284C630.127 750.473 630.518 750.568 630.964 750.568C631.264 750.568 631.535 750.527 631.777 750.443C632.019 750.356 632.23 750.229 632.408 750.062C632.586 749.896 632.72 749.689 632.811 749.443L634.732 749.659C634.61 750.167 634.379 750.61 634.038 750.989C633.701 751.364 633.269 751.655 632.743 751.864C632.216 752.068 631.614 752.17 630.936 752.17ZM642.972 743.562C642.919 743.066 642.695 742.68 642.301 742.403C641.911 742.127 641.403 741.989 640.778 741.989C640.339 741.989 639.962 742.055 639.648 742.188C639.333 742.32 639.093 742.5 638.926 742.727C638.759 742.955 638.674 743.214 638.67 743.506C638.67 743.748 638.725 743.958 638.835 744.136C638.949 744.314 639.102 744.466 639.295 744.591C639.489 744.712 639.703 744.814 639.938 744.898C640.172 744.981 640.409 745.051 640.648 745.108L641.739 745.381C642.178 745.483 642.6 745.621 643.006 745.795C643.415 745.97 643.78 746.189 644.102 746.455C644.428 746.72 644.686 747.04 644.875 747.415C645.064 747.79 645.159 748.229 645.159 748.733C645.159 749.415 644.985 750.015 644.636 750.534C644.288 751.049 643.784 751.453 643.125 751.744C642.47 752.032 641.676 752.176 640.744 752.176C639.839 752.176 639.053 752.036 638.386 751.756C637.723 751.475 637.205 751.066 636.83 750.528C636.458 749.991 636.258 749.335 636.227 748.562H638.301C638.331 748.968 638.456 749.305 638.676 749.574C638.896 749.843 639.182 750.044 639.534 750.176C639.89 750.309 640.288 750.375 640.727 750.375C641.186 750.375 641.587 750.307 641.932 750.17C642.28 750.03 642.553 749.837 642.75 749.591C642.947 749.341 643.047 749.049 643.051 748.716C643.047 748.413 642.958 748.163 642.784 747.966C642.61 747.765 642.366 747.598 642.051 747.466C641.741 747.33 641.377 747.208 640.96 747.102L639.636 746.761C638.678 746.515 637.92 746.142 637.364 745.642C636.811 745.138 636.534 744.47 636.534 743.636C636.534 742.951 636.72 742.35 637.091 741.835C637.466 741.32 637.975 740.92 638.619 740.636C639.263 740.348 639.992 740.205 640.807 740.205C641.633 740.205 642.356 740.348 642.977 740.636C643.602 740.92 644.093 741.316 644.449 741.824C644.805 742.328 644.989 742.907 645 743.562H642.972ZM651.305 743.273V744.864H646.288V743.273H651.305ZM647.527 741.182H649.584V749.375C649.584 749.652 649.625 749.864 649.709 750.011C649.796 750.155 649.91 750.254 650.05 750.307C650.19 750.36 650.345 750.386 650.516 750.386C650.644 750.386 650.762 750.377 650.868 750.358C650.978 750.339 651.061 750.322 651.118 750.307L651.464 751.915C651.355 751.953 651.197 751.994 650.993 752.04C650.792 752.085 650.546 752.112 650.254 752.119C649.739 752.134 649.275 752.057 648.862 751.886C648.449 751.712 648.122 751.443 647.879 751.08C647.641 750.716 647.523 750.261 647.527 749.716V741.182ZM658.588 748.33V743.273H660.645V752H658.651V750.449H658.56C658.363 750.937 658.039 751.337 657.588 751.648C657.141 751.958 656.59 752.114 655.935 752.114C655.363 752.114 654.857 751.987 654.418 751.733C653.982 751.475 653.641 751.102 653.395 750.614C653.149 750.121 653.026 749.527 653.026 748.83V743.273H655.082V748.511C655.082 749.064 655.234 749.504 655.537 749.83C655.84 750.155 656.238 750.318 656.73 750.318C657.033 750.318 657.327 750.244 657.611 750.097C657.895 749.949 658.128 749.729 658.31 749.438C658.495 749.142 658.588 748.773 658.588 748.33ZM665.999 752.153C665.313 752.153 664.699 751.977 664.158 751.625C663.616 751.273 663.188 750.761 662.874 750.091C662.559 749.42 662.402 748.606 662.402 747.648C662.402 746.678 662.561 745.86 662.879 745.193C663.201 744.523 663.635 744.017 664.18 743.676C664.726 743.331 665.334 743.159 666.004 743.159C666.516 743.159 666.936 743.246 667.266 743.42C667.595 743.591 667.857 743.797 668.05 744.04C668.243 744.278 668.393 744.504 668.499 744.716H668.584V740.364H670.646V752H668.624V750.625H668.499C668.393 750.837 668.239 751.062 668.038 751.301C667.838 751.536 667.572 751.737 667.243 751.903C666.913 752.07 666.499 752.153 665.999 752.153ZM666.572 750.466C667.008 750.466 667.379 750.348 667.686 750.114C667.993 749.875 668.226 749.544 668.385 749.119C668.544 748.695 668.624 748.201 668.624 747.636C668.624 747.072 668.544 746.581 668.385 746.165C668.23 745.748 667.999 745.424 667.692 745.193C667.389 744.962 667.016 744.847 666.572 744.847C666.114 744.847 665.732 744.966 665.425 745.205C665.118 745.443 664.887 745.773 664.732 746.193C664.576 746.614 664.499 747.095 664.499 747.636C664.499 748.182 664.576 748.669 664.732 749.097C664.891 749.521 665.124 749.856 665.43 750.102C665.741 750.345 666.122 750.466 666.572 750.466ZM672.838 752V743.273H674.895V752H672.838ZM673.872 742.034C673.546 742.034 673.266 741.926 673.031 741.71C672.796 741.491 672.679 741.227 672.679 740.92C672.679 740.61 672.796 740.347 673.031 740.131C673.266 739.911 673.546 739.801 673.872 739.801C674.202 739.801 674.482 739.911 674.713 740.131C674.948 740.347 675.065 740.61 675.065 740.92C675.065 741.227 674.948 741.491 674.713 741.71C674.482 741.926 674.202 742.034 673.872 742.034ZM680.817 752.17C679.964 752.17 679.226 751.983 678.601 751.608C677.976 751.233 677.491 750.708 677.146 750.034C676.805 749.36 676.635 748.572 676.635 747.67C676.635 746.769 676.805 745.979 677.146 745.301C677.491 744.623 677.976 744.097 678.601 743.722C679.226 743.347 679.964 743.159 680.817 743.159C681.669 743.159 682.408 743.347 683.033 743.722C683.658 744.097 684.141 744.623 684.482 745.301C684.826 745.979 684.999 746.769 684.999 747.67C684.999 748.572 684.826 749.36 684.482 750.034C684.141 750.708 683.658 751.233 683.033 751.608C682.408 751.983 681.669 752.17 680.817 752.17ZM680.828 750.523C681.29 750.523 681.677 750.396 681.987 750.142C682.298 749.884 682.529 749.54 682.68 749.108C682.836 748.676 682.913 748.195 682.913 747.665C682.913 747.131 682.836 746.648 682.68 746.216C682.529 745.78 682.298 745.434 681.987 745.176C681.677 744.919 681.29 744.79 680.828 744.79C680.355 744.79 679.961 744.919 679.646 745.176C679.336 745.434 679.103 745.78 678.947 746.216C678.796 746.648 678.72 747.131 678.72 747.665C678.72 748.195 678.796 748.676 678.947 749.108C679.103 749.54 679.336 749.884 679.646 750.142C679.961 750.396 680.355 750.523 680.828 750.523Z" fill="#52525B"/>
<defs>
<linearGradient id="paint0_linear_699_2" x1="498" y1="453" x2="784" y2="453" gradientUnits="userSpaceOnUse">
<stop stop-color="#EDEDED"/>
<stop offset="1" stop-color="white" stop-opacity="0.37"/>
</linearGradient>
</defs>
</svg>
